# xmcd CD database file
#
# Track frame offsets:
#	150
#	13231
#	29029
#	43029
#	65471
#	82468
#	98771
#	114618
#	136166
#	152291
#	166610
#	182513
#
# Disc length: 2577 seconds
#
# Revision: 0
# Processed by: cddbd v1.5.2PL0 Copyright (c) Steve Scherf et al.
# Submitted via: CDex 2.14
#
DISCID=970a0f0c
DTITLE=Richard Kuncicky - Acoustic Standards Volume Two
DYEAR=2004
DGENRE=Jazz
TTITLE0=Stars Fell On Alabama
TTITLE1=Lady Be Good
TTITLE2=Misty
TTITLE3=Autumn Leaves
TTITLE4=I'm Confessin'
TTITLE5=Honeysuckle Rose
TTITLE6=The Way You Look Tonight
TTITLE7=Begin The Beguine
TTITLE8=Moonlight In Vermont
TTITLE9=It's Only A Paper Moon
TTITLE10=Mona Lisa
TTITLE11=Bye Bye Blues
EXTD=YEAR: 2004
EXTT0=
EXTT1=
EXTT2=
EXTT3=
EXTT4=
EXTT5=
EXTT6=
EXTT7=
EXTT8=
EXTT9=
EXTT10=
EXTT11=
PLAYORDER=
